<svg width="181" height="235" viewBox="0 0 181 235" fill="none" xmlns="http://www.w3.org/2000/svg">
<g clip-path="url(#clip0_2291_7634)">
<g filter="url(#filter0_dd_2291_7634)">
<path d="M32.2388 95.9672C32.1081 94.2293 33.4839 92.7578 35.2267 92.7578H152.701C154.47 92.7578 155.855 94.2754 155.686 96.0364C153.738 116.336 143.303 224.135 141.02 227.758C138.607 231.588 100.002 234.501 96.7217 234.742C96.5569 234.754 96.4433 234.752 96.2788 234.737C92.9771 234.422 53.7388 230.631 47.8121 227.758C42.1991 225.037 33.7588 116.174 32.2388 95.9672Z" fill="#489F78"/>
</g>
<g filter="url(#filter1_i_2291_7634)">
<ellipse cx="94" cy="94.2578" rx="62" ry="8.5" fill="url(#paint0_linear_2291_7634)"/>
</g>
<rect x="52" y="130.906" width="10" height="76" rx="5" transform="rotate(-11 52 130.906)" fill="url(#paint1_linear_2291_7634)"/>
<rect x="88" y="128" width="10" height="76" rx="5" fill="url(#paint2_linear_2291_7634)"/>
<rect y="59.3672" width="10" height="76" rx="5" transform="rotate(-56.7995 0 59.3672)" fill="url(#paint3_linear_2291_7634)"/>
<rect x="173.352" y="43" width="10" height="76" rx="5" transform="rotate(44.5886 173.352 43)" fill="url(#paint4_linear_2291_7634)"/>
<rect x="125.801" y="128" width="10" height="76" rx="5" transform="rotate(12 125.801 128)" fill="url(#paint5_linear_2291_7634)"/>
<g filter="url(#filter2_dd_2291_7634)">
<ellipse cx="97.5169" cy="40.8356" rx="53" ry="24.1616" transform="rotate(-16 97.5169 40.8356)" fill="url(#paint6_linear_2291_7634)" shape-rendering="crispEdges"/>
</g>
<ellipse cx="52.9197" cy="73.5015" rx="7" ry="6.5" transform="rotate(-144.81 52.9197 73.5015)" fill="url(#paint7_linear_2291_7634)"/>
<ellipse cx="79.918" cy="75.5" rx="7" ry="6.5" transform="rotate(-180 79.918 75.5)" fill="url(#paint8_linear_2291_7634)"/>
<ellipse cx="38.918" cy="54.5014" rx="7" ry="6.5" transform="rotate(-93.5145 38.918 54.5014)" fill="url(#paint9_linear_2291_7634)"/>
<ellipse cx="126.918" cy="67.5" rx="7" ry="6.5" transform="rotate(-180 126.918 67.5)" fill="url(#paint10_linear_2291_7634)"/>
<ellipse cx="47.9196" cy="30.4984" rx="7" ry="6.5" transform="rotate(-43.0993 47.9196 30.4984)" fill="url(#paint11_linear_2291_7634)"/>
<ellipse cx="90.917" cy="10.5" rx="7" ry="6.5" transform="rotate(-12.736 90.917 10.5)" fill="url(#paint12_linear_2291_7634)"/>
<ellipse cx="112.918" cy="6.5" rx="7" ry="6.5" fill="url(#paint13_linear_2291_7634)"/>
<ellipse cx="135.918" cy="6.5" rx="7" ry="6.5" fill="url(#paint14_linear_2291_7634)"/>
<ellipse cx="151.919" cy="16.5005" rx="7" ry="6.5" transform="rotate(37.6541 151.919 16.5005)" fill="url(#paint15_linear_2291_7634)"/>
<ellipse cx="147.909" cy="54.5067" rx="7" ry="6.5" transform="rotate(163.311 147.909 54.5067)" fill="url(#paint16_linear_2291_7634)"/>
<ellipse cx="159.492" cy="37.2361" rx="7" ry="6.5" transform="rotate(108.178 159.492 37.2361)" fill="url(#paint17_linear_2291_7634)"/>
<ellipse cx="68.9193" cy="17.5014" rx="7" ry="6.5" transform="rotate(-15.9014 68.9193 17.5014)" fill="url(#paint18_linear_2291_7634)"/>
<ellipse cx="104.918" cy="72.5" rx="7" ry="6.5" transform="rotate(-180 104.918 72.5)" fill="url(#paint19_linear_2291_7634)"/>
</g>
<defs>
<filter id="filter0_dd_2291_7634" x="23.2305" y="90.7578" width="136.469" height="151.992" filterUnits="userSpaceOnUse" color-interpolation-filters="sRGB">
<feFlood flood-opacity="0" result="BackgroundImageFix"/>
<feColorMatrix in="SourceAlpha" type="matrix" values="0 0 0 0 0 0 0 0 0 0 0 0 0 0 0 0 0 0 127 0" result="hardAlpha"/>
<feOffset dx="-5" dy="2"/>
<feGaussianBlur stdDeviation="2"/>
<feComposite in2="hardAlpha" operator="out"/>
<feColorMatrix type="matrix" values="0 0 0 0 0 0 0 0 0 0 0 0 0 0 0 0 0 0 0.25 0"/>
<feBlend mode="normal" in2="BackgroundImageFix" result="effect1_dropShadow_2291_7634"/>
<feColorMatrix in="SourceAlpha" type="matrix" values="0 0 0 0 0 0 0 0 0 0 0 0 0 0 0 0 0 0 127 0" result="hardAlpha"/>
<feOffset dy="4"/>
<feGaussianBlur stdDeviation="2"/>
<feComposite in2="hardAlpha" operator="out"/>
<feColorMatrix type="matrix" values="0 0 0 0 0 0 0 0 0 0 0 0 0 0 0 0 0 0 0.25 0"/>
<feBlend mode="normal" in2="effect1_dropShadow_2291_7634" result="effect2_dropShadow_2291_7634"/>
<feBlend mode="normal" in="SourceGraphic" in2="effect2_dropShadow_2291_7634" result="shape"/>
</filter>
<filter id="filter1_i_2291_7634" x="32" y="85.7578" width="126" height="19" filterUnits="userSpaceOnUse" color-interpolation-filters="sRGB">
<feFlood flood-opacity="0" result="BackgroundImageFix"/>
<feBlend mode="normal" in="SourceGraphic" in2="BackgroundImageFix" result="shape"/>
<feColorMatrix in="SourceAlpha" type="matrix" values="0 0 0 0 0 0 0 0 0 0 0 0 0 0 0 0 0 0 127 0" result="hardAlpha"/>
<feOffset dx="2" dy="2"/>
<feGaussianBlur stdDeviation="19.5"/>
<feComposite in2="hardAlpha" operator="arithmetic" k2="-1" k3="1"/>
<feColorMatrix type="matrix" values="0 0 0 0 0.109804 0 0 0 0 0.552941 0 0 0 0 0.45098 0 0 0 0.05 0"/>
<feBlend mode="normal" in2="shape" result="effect1_innerShadow_2291_7634"/>
</filter>
<filter id="filter2_dd_2291_7634" x="8.12891" y="-24.6055" width="178.773" height="130.883" filterUnits="userSpaceOnUse" color-interpolation-filters="sRGB">
<feFlood flood-opacity="0" result="BackgroundImageFix"/>
<feColorMatrix in="SourceAlpha" type="matrix" values="0 0 0 0 0 0 0 0 0 0 0 0 0 0 0 0 0 0 127 0" result="hardAlpha"/>
<feOffset dx="2" dy="9"/>
<feGaussianBlur stdDeviation="2"/>
<feComposite in2="hardAlpha" operator="out"/>
<feColorMatrix type="matrix" values="0 0 0 0 0.58512 0 0 0 0 0.862488 0 0 0 0 0.73815 0 0 0 1 0"/>
<feBlend mode="normal" in2="BackgroundImageFix" result="effect1_dropShadow_2291_7634"/>
<feColorMatrix in="SourceAlpha" type="matrix" values="0 0 0 0 0 0 0 0 0 0 0 0 0 0 0 0 0 0 127 0" result="hardAlpha"/>
<feOffset/>
<feGaussianBlur stdDeviation="19"/>
<feComposite in2="hardAlpha" operator="out"/>
<feColorMatrix type="matrix" values="0 0 0 0 0 0 0 0 0 0 0 0 0 0 0 0 0 0 0.25 0"/>
<feBlend mode="normal" in2="effect1_dropShadow_2291_7634" result="effect2_dropShadow_2291_7634"/>
<feBlend mode="normal" in="SourceGraphic" in2="effect2_dropShadow_2291_7634" result="shape"/>
</filter>
<linearGradient id="paint0_linear_2291_7634" x1="150" y1="172.258" x2="5.5" y2="68.2578" gradientUnits="userSpaceOnUse">
<stop offset="0.563553" stop-color="#1C8D73"/>
<stop offset="1" stop-color="#89ECD5" stop-opacity="0"/>
</linearGradient>
<linearGradient id="paint1_linear_2291_7634" x1="57" y1="130.906" x2="57" y2="206.906" gradientUnits="userSpaceOnUse">
<stop stop-color="#D9D9D9"/>
<stop offset="1" stop-color="#D9D9D9" stop-opacity="0"/>
</linearGradient>
<linearGradient id="paint2_linear_2291_7634" x1="93" y1="128" x2="93" y2="204" gradientUnits="userSpaceOnUse">
<stop stop-color="#D9D9D9"/>
<stop offset="1" stop-color="#D9D9D9" stop-opacity="0"/>
</linearGradient>
<linearGradient id="paint3_linear_2291_7634" x1="5" y1="59.3672" x2="5" y2="135.367" gradientUnits="userSpaceOnUse">
<stop stop-color="#1C8D73"/>
<stop offset="1" stop-color="#D9D9D9" stop-opacity="0"/>
</linearGradient>
<linearGradient id="paint4_linear_2291_7634" x1="178.352" y1="43" x2="178.352" y2="119" gradientUnits="userSpaceOnUse">
<stop stop-color="#1C8D73"/>
<stop offset="1" stop-color="#D9D9D9" stop-opacity="0"/>
</linearGradient>
<linearGradient id="paint5_linear_2291_7634" x1="130.801" y1="128" x2="130.801" y2="204" gradientUnits="userSpaceOnUse">
<stop stop-color="#D9D9D9"/>
<stop offset="1" stop-color="#D9D9D9" stop-opacity="0"/>
</linearGradient>
<linearGradient id="paint6_linear_2291_7634" x1="97.5169" y1="16.674" x2="97.5169" y2="64.9972" gradientUnits="userSpaceOnUse">
<stop stop-color="#1C8D73"/>
<stop offset="1" stop-color="#285A4F" stop-opacity="0"/>
</linearGradient>
<linearGradient id="paint7_linear_2291_7634" x1="52.9197" y1="67.0015" x2="52.9197" y2="80.0015" gradientUnits="userSpaceOnUse">
<stop stop-color="#1C8D73"/>
<stop offset="1" stop-color="#D9D9D9" stop-opacity="0"/>
</linearGradient>
<linearGradient id="paint8_linear_2291_7634" x1="79.918" y1="69" x2="79.918" y2="82" gradientUnits="userSpaceOnUse">
<stop stop-color="#1C8D73"/>
<stop offset="1" stop-color="#D9D9D9" stop-opacity="0"/>
</linearGradient>
<linearGradient id="paint9_linear_2291_7634" x1="38.918" y1="48.0014" x2="38.918" y2="61.0014" gradientUnits="userSpaceOnUse">
<stop stop-color="#1C8D73"/>
<stop offset="1" stop-color="#D9D9D9" stop-opacity="0"/>
</linearGradient>
<linearGradient id="paint10_linear_2291_7634" x1="126.918" y1="61" x2="126.918" y2="74" gradientUnits="userSpaceOnUse">
<stop stop-color="#1C8D73"/>
<stop offset="1" stop-color="#D9D9D9" stop-opacity="0"/>
</linearGradient>
<linearGradient id="paint11_linear_2291_7634" x1="47.9196" y1="23.9984" x2="47.9196" y2="36.9984" gradientUnits="userSpaceOnUse">
<stop stop-color="#1C8D73"/>
<stop offset="1" stop-color="#D9D9D9" stop-opacity="0"/>
</linearGradient>
<linearGradient id="paint12_linear_2291_7634" x1="90.917" y1="3.99998" x2="90.917" y2="17" gradientUnits="userSpaceOnUse">
<stop stop-color="#1C8D73"/>
<stop offset="1" stop-color="#D9D9D9" stop-opacity="0"/>
</linearGradient>
<linearGradient id="paint13_linear_2291_7634" x1="112.918" y1="0" x2="112.918" y2="13" gradientUnits="userSpaceOnUse">
<stop stop-color="#1C8D73"/>
<stop offset="1" stop-color="#D9D9D9" stop-opacity="0"/>
</linearGradient>
<linearGradient id="paint14_linear_2291_7634" x1="135.918" y1="0" x2="135.918" y2="13" gradientUnits="userSpaceOnUse">
<stop stop-color="#1C8D73"/>
<stop offset="1" stop-color="#D9D9D9" stop-opacity="0"/>
</linearGradient>
<linearGradient id="paint15_linear_2291_7634" x1="151.919" y1="10.0005" x2="151.919" y2="23.0005" gradientUnits="userSpaceOnUse">
<stop stop-color="#1C8D73"/>
<stop offset="1" stop-color="#D9D9D9" stop-opacity="0"/>
</linearGradient>
<linearGradient id="paint16_linear_2291_7634" x1="147.909" y1="48.0067" x2="147.909" y2="61.0067" gradientUnits="userSpaceOnUse">
<stop stop-color="#1C8D73"/>
<stop offset="1" stop-color="#D9D9D9" stop-opacity="0"/>
</linearGradient>
<linearGradient id="paint17_linear_2291_7634" x1="159.492" y1="30.7361" x2="159.492" y2="43.7361" gradientUnits="userSpaceOnUse">
<stop stop-color="#1C8D73"/>
<stop offset="1" stop-color="#D9D9D9" stop-opacity="0"/>
</linearGradient>
<linearGradient id="paint18_linear_2291_7634" x1="68.9193" y1="11.0014" x2="68.9193" y2="24.0014" gradientUnits="userSpaceOnUse">
<stop stop-color="#1C8D73"/>
<stop offset="1" stop-color="#D9D9D9" stop-opacity="0"/>
</linearGradient>
<linearGradient id="paint19_linear_2291_7634" x1="104.918" y1="66" x2="104.918" y2="79" gradientUnits="userSpaceOnUse">
<stop stop-color="#1C8D73"/>
<stop offset="1" stop-color="#D9D9D9" stop-opacity="0"/>
</linearGradient>
<clipPath id="clip0_2291_7634">
<rect width="180.473" height="234.757" fill="white"/>
</clipPath>
</defs>
</svg>
